# xmcd CD database file
#
# Track frame offsets:
#	150
#	8654
#	25722
#	39992
#	52662
#	67787
#	81142
#	95820
#	107767
#	115255
#	150685
#
# Disc length: 2209 seconds
#
# Revision: 0
# Processed by: cddbd v1.5PL3 Copyright (c) Steve Scherf et al.
# Submitted via: CDex 1.50beta10
#
DISCID=75089f0b
DTITLE=Blues Brothers Band - Blues Brothers - Soundtrack
DYEAR=1980
DGENRE=Blues
TTITLE0=She cought the Katy
TTITLE1=Peter Gunn theme
TTITLE2=Gimme som lovin
TTITLE3=Shake Your tailfeather
TTITLE4=Everybody needs somebody to love
TTITLE5=The old landmark
TTITLE6=Think
TTITLE7=Theme from Rawhide
TTITLE8=Minnie the moocher
TTITLE9=Sweet home Chicago
TTITLE10=Jailhouse rock
EXTD=YEAR: 1980
EXTT0=
EXTT1=
EXTT2=
EXTT3=
EXTT4=
EXTT5=
EXTT6=
EXTT7=
EXTT8=
EXTT9=
EXTT10=
PLAYORDER=
